%TF.GenerationSoftware,KiCad,Pcbnew,9.0.4*%
%TF.CreationDate,2025-11-17T21:33:10+13:00*%
%TF.ProjectId,LoopbackBoard,4c6f6f70-6261-4636-9b42-6f6172642e6b,rev?*%
%TF.SameCoordinates,Original*%
%TF.FileFunction,Copper,L1,Top*%
%TF.FilePolarity,Positive*%
%FSLAX46Y46*%
G04 Gerber Fmt 4.6, Leading zero omitted, Abs format (unit mm)*
G04 Created by KiCad (PCBNEW 9.0.4) date 2025-11-17 21:33:10*
%MOMM*%
%LPD*%
G01*
G04 APERTURE LIST*
%TA.AperFunction,ComponentPad*%
%ADD10C,4.048760*%
%TD*%
%TA.AperFunction,ComponentPad*%
%ADD11R,1.524000X1.524000*%
%TD*%
%TA.AperFunction,ComponentPad*%
%ADD12C,1.524000*%
%TD*%
%TA.AperFunction,Conductor*%
%ADD13C,0.300000*%
%TD*%
G04 APERTURE END LIST*
D10*
%TO.P,J1,0,PAD*%
%TO.N,unconnected-(J1-PAD-Pad0)*%
X129349500Y-35098740D03*
%TO.N,unconnected-(J1-PAD-Pad0)_1*%
X129349500Y-60087260D03*
D11*
%TO.P,J1,1,1*%
%TO.N,Net-(J1-Pad1)*%
X127927100Y-42106600D03*
D12*
%TO.P,J1,2,2*%
%TO.N,Net-(J1-Pad2)*%
X127927100Y-44849800D03*
%TO.P,J1,3,3*%
X127927100Y-47593000D03*
%TO.P,J1,4,4*%
%TO.N,Net-(J1-Pad1)*%
X127927100Y-50336200D03*
%TO.P,J1,5,5*%
%TO.N,unconnected-(J1-Pad5)*%
X127927100Y-53079400D03*
%TO.P,J1,6,6*%
%TO.N,Net-(J1-Pad1)*%
X130771900Y-43478200D03*
%TO.P,J1,7,7*%
%TO.N,Net-(J1-Pad7)*%
X130771900Y-46196000D03*
%TO.P,J1,8,8*%
X130771900Y-48964600D03*
%TO.P,J1,9,9*%
%TO.N,Net-(J1-Pad1)*%
X130771900Y-51707800D03*
%TD*%
D11*
%TO.P,J4,1,1*%
%TO.N,Net-(J4-Pad1)*%
X89217500Y-94596000D03*
D12*
%TO.P,J4,2,2*%
%TO.N,Net-(J4-P15)*%
X91986100Y-94596000D03*
%TO.P,J4,3,3*%
%TO.N,unconnected-(J4-Pad3)*%
X94754700Y-94596000D03*
%TO.P,J4,4,4*%
%TO.N,unconnected-(J4-Pad4)*%
X97523300Y-94596000D03*
%TO.P,J4,5,5*%
%TO.N,unconnected-(J4-Pad5)*%
X100291900Y-94596000D03*
%TO.P,J4,6,6*%
%TO.N,unconnected-(J4-Pad6)*%
X103060500Y-94596000D03*
%TO.P,J4,7,7*%
%TO.N,unconnected-(J4-Pad7)*%
X105829100Y-94596000D03*
%TO.P,J4,8,8*%
%TO.N,unconnected-(J4-Pad8)*%
X108597700Y-94596000D03*
%TO.P,J4,9,9*%
%TO.N,unconnected-(J4-Pad9)*%
X111366300Y-94596000D03*
%TO.P,J4,10,10*%
%TO.N,Net-(J4-P16)*%
X114134900Y-94596000D03*
%TO.P,J4,11,11*%
%TO.N,Net-(J4-P17)*%
X116903500Y-94596000D03*
%TO.P,J4,12,12*%
%TO.N,Net-(J4-P14)*%
X119672100Y-94596000D03*
%TO.P,J4,13,13*%
%TO.N,Net-(J4-Pad1)*%
X122440700Y-94596000D03*
%TO.P,J4,14,P14*%
%TO.N,Net-(J4-P14)*%
X90601800Y-97440800D03*
%TO.P,J4,15,P15*%
%TO.N,Net-(J4-P15)*%
X93370400Y-97440800D03*
%TO.P,J4,16,P16*%
%TO.N,Net-(J4-P16)*%
X96139000Y-97440800D03*
%TO.P,J4,17,P17*%
%TO.N,Net-(J4-P17)*%
X98907600Y-97440800D03*
%TO.P,J4,18,P18*%
%TO.N,unconnected-(J4-P18-Pad18)*%
X101676200Y-97440800D03*
%TO.P,J4,19,P19*%
%TO.N,unconnected-(J4-P19-Pad19)*%
X104444800Y-97440800D03*
%TO.P,J4,20,P20*%
%TO.N,unconnected-(J4-P20-Pad20)*%
X107213400Y-97440800D03*
%TO.P,J4,21,P21*%
%TO.N,unconnected-(J4-P21-Pad21)*%
X109982000Y-97440800D03*
%TO.P,J4,22,P22*%
%TO.N,unconnected-(J4-P22-Pad22)*%
X112750600Y-97440800D03*
%TO.P,J4,23,P23*%
%TO.N,unconnected-(J4-P23-Pad23)*%
X115519200Y-97440800D03*
%TO.P,J4,24,P24*%
%TO.N,unconnected-(J4-P24-Pad24)*%
X118287800Y-97440800D03*
%TO.P,J4,25,P25*%
%TO.N,unconnected-(J4-P25-Pad25)*%
X121056400Y-97440800D03*
D10*
%TO.P,J4,GND*%
%TO.N,N/C*%
X129349100Y-96018400D03*
X82309100Y-96018400D03*
%TD*%
D11*
%TO.P,J3,1,1*%
%TO.N,unconnected-(J3-Pad1)*%
X83781900Y-64160400D03*
D12*
%TO.P,J3,2,2*%
%TO.N,Net-(J3-Pad2)*%
X83781900Y-61391800D03*
%TO.P,J3,3,3*%
X83781900Y-58623200D03*
%TO.P,J3,4,4*%
%TO.N,Net-(J3-Pad4)*%
X83781900Y-55854600D03*
%TO.P,J3,5,5*%
X83781900Y-53086000D03*
%TO.P,J3,6,6*%
%TO.N,Net-(J3-P20)*%
X83781900Y-50317400D03*
%TO.P,J3,7,7*%
%TO.N,unconnected-(J3-Pad7)*%
X83781900Y-47548800D03*
%TO.P,J3,8,8*%
%TO.N,Net-(J3-P20)*%
X83781900Y-44780200D03*
%TO.P,J3,9,9*%
%TO.N,unconnected-(J3-Pad9)*%
X83781900Y-42011600D03*
%TO.P,J3,10,10*%
%TO.N,unconnected-(J3-Pad10)*%
X83781900Y-39243000D03*
%TO.P,J3,11,11*%
%TO.N,unconnected-(J3-Pad11)*%
X83781900Y-36474400D03*
%TO.P,J3,12,12*%
%TO.N,unconnected-(J3-Pad12)*%
X83781900Y-33705800D03*
%TO.P,J3,13,13*%
%TO.N,unconnected-(J3-Pad13)*%
X83781900Y-30937200D03*
%TO.P,J3,14,P14*%
%TO.N,unconnected-(J3-P14-Pad14)*%
X80937100Y-62776100D03*
%TO.P,J3,15,P15*%
%TO.N,unconnected-(J3-P15-Pad15)*%
X80937100Y-60007500D03*
%TO.P,J3,16,P16*%
%TO.N,unconnected-(J3-P16-Pad16)*%
X80937100Y-57238900D03*
%TO.P,J3,17,P17*%
%TO.N,unconnected-(J3-P17-Pad17)*%
X80937100Y-54470300D03*
%TO.P,J3,18,P18*%
%TO.N,unconnected-(J3-P18-Pad18)*%
X80937100Y-51701700D03*
%TO.P,J3,19,P19*%
%TO.N,unconnected-(J3-P19-Pad19)*%
X80937100Y-48933100D03*
%TO.P,J3,20,P20*%
%TO.N,Net-(J3-P20)*%
X80937100Y-46164500D03*
%TO.P,J3,21,P21*%
%TO.N,unconnected-(J3-P21-Pad21)*%
X80937100Y-43395900D03*
%TO.P,J3,22,P22*%
%TO.N,Net-(J3-P20)*%
X80937100Y-40627300D03*
%TO.P,J3,23,P23*%
%TO.N,unconnected-(J3-P23-Pad23)*%
X80937100Y-37858700D03*
%TO.P,J3,24,P24*%
%TO.N,unconnected-(J3-P24-Pad24)*%
X80937100Y-35090100D03*
%TO.P,J3,25,P25*%
%TO.N,unconnected-(J3-P25-Pad25)*%
X80937100Y-32321500D03*
D10*
%TO.P,J3,GND*%
%TO.N,N/C*%
X82359500Y-71068800D03*
X82359500Y-24028800D03*
%TD*%
D13*
%TO.N,Net-(J1-Pad1)*%
X132791200Y-50317400D02*
X131400800Y-51707800D01*
X130771900Y-43478200D02*
X130771900Y-42456100D01*
X130422400Y-42106600D02*
X127927100Y-42106600D01*
X130771900Y-51707800D02*
X129298700Y-51707800D01*
X131743200Y-43478200D02*
X132791200Y-44526200D01*
X132791200Y-44526200D02*
X132791200Y-50317400D01*
X131400800Y-51707800D02*
X130771900Y-51707800D01*
X129298700Y-51707800D02*
X127927100Y-50336200D01*
X130771900Y-42456100D02*
X130422400Y-42106600D01*
X130771900Y-43478200D02*
X131743200Y-43478200D01*
%TO.N,Net-(J1-Pad2)*%
X127927100Y-44849800D02*
X127927100Y-47593000D01*
%TO.N,Net-(J1-Pad7)*%
X130771900Y-46196000D02*
X130771900Y-48964600D01*
%TO.N,Net-(J3-P20)*%
X80556100Y-46545500D02*
X80937100Y-46164500D01*
X80581500Y-45808900D02*
X80175100Y-45808900D01*
X83781900Y-50317400D02*
X79883000Y-50317400D01*
X79019400Y-49453800D02*
X79019400Y-47701200D01*
X80175100Y-40627300D02*
X80937100Y-40627300D01*
X80937100Y-46164500D02*
X82321400Y-44780200D01*
X79019400Y-44653200D02*
X79019400Y-41783000D01*
X79883000Y-50317400D02*
X79019400Y-49453800D01*
X80175100Y-46545500D02*
X80556100Y-46545500D01*
X79019400Y-47701200D02*
X80175100Y-46545500D01*
X80937100Y-46164500D02*
X80581500Y-45808900D01*
X80175100Y-45808900D02*
X79019400Y-44653200D01*
X79019400Y-41783000D02*
X80175100Y-40627300D01*
X82321400Y-44780200D02*
X83781900Y-44780200D01*
%TO.N,Net-(J3-Pad2)*%
X83781900Y-58623200D02*
X83781900Y-61391800D01*
%TO.N,Net-(J3-Pad4)*%
X83781900Y-55854600D02*
X83781900Y-53086000D01*
%TO.N,Net-(J4-Pad1)*%
X89230200Y-99314000D02*
X89217500Y-99326700D01*
X89217500Y-99326700D02*
X89217500Y-94596000D01*
X122440700Y-94596000D02*
X122440700Y-99021900D01*
X90678000Y-100761800D02*
X89230200Y-99314000D01*
X120700800Y-100761800D02*
X90678000Y-100761800D01*
X122440700Y-99021900D02*
X120700800Y-100761800D01*
%TO.N,Net-(J4-P17)*%
X116903500Y-98539300D02*
X116433600Y-99009200D01*
X98907600Y-98577400D02*
X98907600Y-97440800D01*
X99339400Y-99009200D02*
X98907600Y-98577400D01*
X116433600Y-99009200D02*
X99339400Y-99009200D01*
X116903500Y-94596000D02*
X116903500Y-98539300D01*
%TO.N,Net-(J4-P16)*%
X112826800Y-96037400D02*
X114134900Y-94729300D01*
X96139000Y-96647000D02*
X96748600Y-96037400D01*
X114134900Y-94729300D02*
X114134900Y-94596000D01*
X96748600Y-96037400D02*
X112826800Y-96037400D01*
X96139000Y-97440800D02*
X96139000Y-96647000D01*
%TO.N,Net-(J4-P15)*%
X91986100Y-94596000D02*
X91986100Y-96056500D01*
X91986100Y-96056500D02*
X93370400Y-97440800D01*
%TO.N,Net-(J4-P14)*%
X118364000Y-99872800D02*
X92938600Y-99872800D01*
X90601800Y-97536000D02*
X90601800Y-97440800D01*
X119672100Y-98564700D02*
X118364000Y-99872800D01*
X92938600Y-99872800D02*
X90601800Y-97536000D01*
X119672100Y-94596000D02*
X119672100Y-98564700D01*
%TD*%
M02*
