%TF.GenerationSoftware,KiCad,Pcbnew,9.0.4*%
%TF.CreationDate,2025-11-17T21:33:10+13:00*%
%TF.ProjectId,LoopbackBoard,4c6f6f70-6261-4636-9b42-6f6172642e6b,rev?*%
%TF.SameCoordinates,Original*%
%TF.FileFunction,Legend,Top*%
%TF.FilePolarity,Positive*%
%FSLAX46Y46*%
G04 Gerber Fmt 4.6, Leading zero omitted, Abs format (unit mm)*
G04 Created by KiCad (PCBNEW 9.0.4) date 2025-11-17 21:33:10*
%MOMM*%
%LPD*%
G01*
G04 APERTURE LIST*
%ADD10C,0.750000*%
%ADD11C,0.300000*%
%ADD12C,1.000000*%
%ADD13C,0.150000*%
%ADD14C,0.203200*%
%ADD15C,0.120000*%
%ADD16C,0.254000*%
%ADD17R,1.524000X1.524000*%
%ADD18C,1.524000*%
%ADD19C,4.048760*%
G04 APERTURE END LIST*
D10*
X80437849Y-88925657D02*
X80812849Y-85925657D01*
X80812849Y-85925657D02*
X81955706Y-85925657D01*
X81955706Y-85925657D02*
X82223563Y-86068514D01*
X82223563Y-86068514D02*
X82348563Y-86211371D01*
X82348563Y-86211371D02*
X82455706Y-86497085D01*
X82455706Y-86497085D02*
X82402135Y-86925657D01*
X82402135Y-86925657D02*
X82223563Y-87211371D01*
X82223563Y-87211371D02*
X82062849Y-87354228D01*
X82062849Y-87354228D02*
X81759278Y-87497085D01*
X81759278Y-87497085D02*
X80616421Y-87497085D01*
X83402135Y-88068514D02*
X84830706Y-88068514D01*
X83009278Y-88925657D02*
X84384278Y-85925657D01*
X84384278Y-85925657D02*
X85009278Y-88925657D01*
X87723564Y-88925657D02*
X86902135Y-87497085D01*
X86009278Y-88925657D02*
X86384278Y-85925657D01*
X86384278Y-85925657D02*
X87527135Y-85925657D01*
X87527135Y-85925657D02*
X87794992Y-86068514D01*
X87794992Y-86068514D02*
X87919992Y-86211371D01*
X87919992Y-86211371D02*
X88027135Y-86497085D01*
X88027135Y-86497085D02*
X87973564Y-86925657D01*
X87973564Y-86925657D02*
X87794992Y-87211371D01*
X87794992Y-87211371D02*
X87634278Y-87354228D01*
X87634278Y-87354228D02*
X87330707Y-87497085D01*
X87330707Y-87497085D02*
X86187850Y-87497085D01*
X88973564Y-88068514D02*
X90402135Y-88068514D01*
X88580707Y-88925657D02*
X89955707Y-85925657D01*
X89955707Y-85925657D02*
X90580707Y-88925657D01*
X93009279Y-88925657D02*
X91580707Y-88925657D01*
X91580707Y-88925657D02*
X91955707Y-85925657D01*
X95437850Y-88925657D02*
X94009278Y-88925657D01*
X94009278Y-88925657D02*
X94384278Y-85925657D01*
X96634278Y-87354228D02*
X97634278Y-87354228D01*
X97866421Y-88925657D02*
X96437849Y-88925657D01*
X96437849Y-88925657D02*
X96812849Y-85925657D01*
X96812849Y-85925657D02*
X98241421Y-85925657D01*
X100580707Y-88925657D02*
X99152135Y-88925657D01*
X99152135Y-88925657D02*
X99527135Y-85925657D01*
X104062849Y-86211371D02*
X104223563Y-86068514D01*
X104223563Y-86068514D02*
X104527134Y-85925657D01*
X104527134Y-85925657D02*
X105241420Y-85925657D01*
X105241420Y-85925657D02*
X105509277Y-86068514D01*
X105509277Y-86068514D02*
X105634277Y-86211371D01*
X105634277Y-86211371D02*
X105741420Y-86497085D01*
X105741420Y-86497085D02*
X105705706Y-86782800D01*
X105705706Y-86782800D02*
X105509277Y-87211371D01*
X105509277Y-87211371D02*
X103580706Y-88925657D01*
X103580706Y-88925657D02*
X105437849Y-88925657D01*
X108527135Y-85925657D02*
X107098563Y-85925657D01*
X107098563Y-85925657D02*
X106777135Y-87354228D01*
X106777135Y-87354228D02*
X106937849Y-87211371D01*
X106937849Y-87211371D02*
X107241420Y-87068514D01*
X107241420Y-87068514D02*
X107955706Y-87068514D01*
X107955706Y-87068514D02*
X108223563Y-87211371D01*
X108223563Y-87211371D02*
X108348563Y-87354228D01*
X108348563Y-87354228D02*
X108455706Y-87639942D01*
X108455706Y-87639942D02*
X108366420Y-88354228D01*
X108366420Y-88354228D02*
X108187849Y-88639942D01*
X108187849Y-88639942D02*
X108027135Y-88782800D01*
X108027135Y-88782800D02*
X107723563Y-88925657D01*
X107723563Y-88925657D02*
X107009277Y-88925657D01*
X107009277Y-88925657D02*
X106741420Y-88782800D01*
X106741420Y-88782800D02*
X106616420Y-88639942D01*
D11*
X121380625Y-23143428D02*
X120523482Y-23143428D01*
X120952053Y-23143428D02*
X120952053Y-21643428D01*
X120952053Y-21643428D02*
X120809196Y-21857714D01*
X120809196Y-21857714D02*
X120666339Y-22000571D01*
X120666339Y-22000571D02*
X120523482Y-22072000D01*
X121880624Y-21643428D02*
X122880624Y-21643428D01*
X122880624Y-21643428D02*
X122237767Y-23143428D01*
X124594909Y-23143428D02*
X124594909Y-21643428D01*
X124594909Y-21643428D02*
X125452052Y-23143428D01*
X125452052Y-23143428D02*
X125452052Y-21643428D01*
X126452053Y-21643428D02*
X126737767Y-21643428D01*
X126737767Y-21643428D02*
X126880624Y-21714857D01*
X126880624Y-21714857D02*
X127023481Y-21857714D01*
X127023481Y-21857714D02*
X127094910Y-22143428D01*
X127094910Y-22143428D02*
X127094910Y-22643428D01*
X127094910Y-22643428D02*
X127023481Y-22929142D01*
X127023481Y-22929142D02*
X126880624Y-23072000D01*
X126880624Y-23072000D02*
X126737767Y-23143428D01*
X126737767Y-23143428D02*
X126452053Y-23143428D01*
X126452053Y-23143428D02*
X126309196Y-23072000D01*
X126309196Y-23072000D02*
X126166338Y-22929142D01*
X126166338Y-22929142D02*
X126094910Y-22643428D01*
X126094910Y-22643428D02*
X126094910Y-22143428D01*
X126094910Y-22143428D02*
X126166338Y-21857714D01*
X126166338Y-21857714D02*
X126309196Y-21714857D01*
X126309196Y-21714857D02*
X126452053Y-21643428D01*
X127523482Y-21643428D02*
X128023482Y-23143428D01*
X128023482Y-23143428D02*
X128523482Y-21643428D01*
X130094910Y-21786285D02*
X130166338Y-21714857D01*
X130166338Y-21714857D02*
X130309196Y-21643428D01*
X130309196Y-21643428D02*
X130666338Y-21643428D01*
X130666338Y-21643428D02*
X130809196Y-21714857D01*
X130809196Y-21714857D02*
X130880624Y-21786285D01*
X130880624Y-21786285D02*
X130952053Y-21929142D01*
X130952053Y-21929142D02*
X130952053Y-22072000D01*
X130952053Y-22072000D02*
X130880624Y-22286285D01*
X130880624Y-22286285D02*
X130023481Y-23143428D01*
X130023481Y-23143428D02*
X130952053Y-23143428D01*
X131880624Y-21643428D02*
X132023481Y-21643428D01*
X132023481Y-21643428D02*
X132166338Y-21714857D01*
X132166338Y-21714857D02*
X132237767Y-21786285D01*
X132237767Y-21786285D02*
X132309195Y-21929142D01*
X132309195Y-21929142D02*
X132380624Y-22214857D01*
X132380624Y-22214857D02*
X132380624Y-22572000D01*
X132380624Y-22572000D02*
X132309195Y-22857714D01*
X132309195Y-22857714D02*
X132237767Y-23000571D01*
X132237767Y-23000571D02*
X132166338Y-23072000D01*
X132166338Y-23072000D02*
X132023481Y-23143428D01*
X132023481Y-23143428D02*
X131880624Y-23143428D01*
X131880624Y-23143428D02*
X131737767Y-23072000D01*
X131737767Y-23072000D02*
X131666338Y-23000571D01*
X131666338Y-23000571D02*
X131594909Y-22857714D01*
X131594909Y-22857714D02*
X131523481Y-22572000D01*
X131523481Y-22572000D02*
X131523481Y-22214857D01*
X131523481Y-22214857D02*
X131594909Y-21929142D01*
X131594909Y-21929142D02*
X131666338Y-21786285D01*
X131666338Y-21786285D02*
X131737767Y-21714857D01*
X131737767Y-21714857D02*
X131880624Y-21643428D01*
X132952052Y-21786285D02*
X133023480Y-21714857D01*
X133023480Y-21714857D02*
X133166338Y-21643428D01*
X133166338Y-21643428D02*
X133523480Y-21643428D01*
X133523480Y-21643428D02*
X133666338Y-21714857D01*
X133666338Y-21714857D02*
X133737766Y-21786285D01*
X133737766Y-21786285D02*
X133809195Y-21929142D01*
X133809195Y-21929142D02*
X133809195Y-22072000D01*
X133809195Y-22072000D02*
X133737766Y-22286285D01*
X133737766Y-22286285D02*
X132880623Y-23143428D01*
X132880623Y-23143428D02*
X133809195Y-23143428D01*
X135166337Y-21643428D02*
X134452051Y-21643428D01*
X134452051Y-21643428D02*
X134380623Y-22357714D01*
X134380623Y-22357714D02*
X134452051Y-22286285D01*
X134452051Y-22286285D02*
X134594909Y-22214857D01*
X134594909Y-22214857D02*
X134952051Y-22214857D01*
X134952051Y-22214857D02*
X135094909Y-22286285D01*
X135094909Y-22286285D02*
X135166337Y-22357714D01*
X135166337Y-22357714D02*
X135237766Y-22500571D01*
X135237766Y-22500571D02*
X135237766Y-22857714D01*
X135237766Y-22857714D02*
X135166337Y-23000571D01*
X135166337Y-23000571D02*
X135094909Y-23072000D01*
X135094909Y-23072000D02*
X134952051Y-23143428D01*
X134952051Y-23143428D02*
X134594909Y-23143428D01*
X134594909Y-23143428D02*
X134452051Y-23072000D01*
X134452051Y-23072000D02*
X134380623Y-23000571D01*
D10*
X92211800Y-72899950D02*
X92354657Y-72489236D01*
X92354657Y-72489236D02*
X92354657Y-71774950D01*
X92354657Y-71774950D02*
X92211800Y-71471379D01*
X92211800Y-71471379D02*
X92068942Y-71310664D01*
X92068942Y-71310664D02*
X91783228Y-71132093D01*
X91783228Y-71132093D02*
X91497514Y-71096379D01*
X91497514Y-71096379D02*
X91211800Y-71203521D01*
X91211800Y-71203521D02*
X91068942Y-71328521D01*
X91068942Y-71328521D02*
X90926085Y-71596379D01*
X90926085Y-71596379D02*
X90783228Y-72149950D01*
X90783228Y-72149950D02*
X90640371Y-72417807D01*
X90640371Y-72417807D02*
X90497514Y-72542807D01*
X90497514Y-72542807D02*
X90211800Y-72649950D01*
X90211800Y-72649950D02*
X89926085Y-72614236D01*
X89926085Y-72614236D02*
X89640371Y-72435664D01*
X89640371Y-72435664D02*
X89497514Y-72274950D01*
X89497514Y-72274950D02*
X89354657Y-71971379D01*
X89354657Y-71971379D02*
X89354657Y-71257093D01*
X89354657Y-71257093D02*
X89497514Y-70846379D01*
X90783228Y-69721378D02*
X90783228Y-68721378D01*
X92354657Y-68489236D02*
X92354657Y-69917807D01*
X92354657Y-69917807D02*
X89354657Y-69542807D01*
X89354657Y-69542807D02*
X89354657Y-68114236D01*
X92354657Y-65489235D02*
X90926085Y-66310664D01*
X92354657Y-67203521D02*
X89354657Y-66828521D01*
X89354657Y-66828521D02*
X89354657Y-65685664D01*
X89354657Y-65685664D02*
X89497514Y-65417807D01*
X89497514Y-65417807D02*
X89640371Y-65292807D01*
X89640371Y-65292807D02*
X89926085Y-65185664D01*
X89926085Y-65185664D02*
X90354657Y-65239235D01*
X90354657Y-65239235D02*
X90640371Y-65417807D01*
X90640371Y-65417807D02*
X90783228Y-65578521D01*
X90783228Y-65578521D02*
X90926085Y-65882092D01*
X90926085Y-65882092D02*
X90926085Y-67024950D01*
X92354657Y-64203521D02*
X89354657Y-63828521D01*
X91497514Y-62810664D02*
X91497514Y-61382093D01*
X92354657Y-63203521D02*
X89354657Y-61828521D01*
X89354657Y-61828521D02*
X92354657Y-61203521D01*
X92354657Y-58774950D02*
X92354657Y-60203521D01*
X92354657Y-60203521D02*
X89354657Y-59828521D01*
X89640371Y-55292807D02*
X89497514Y-55132093D01*
X89497514Y-55132093D02*
X89354657Y-54828522D01*
X89354657Y-54828522D02*
X89354657Y-54114236D01*
X89354657Y-54114236D02*
X89497514Y-53846379D01*
X89497514Y-53846379D02*
X89640371Y-53721379D01*
X89640371Y-53721379D02*
X89926085Y-53614236D01*
X89926085Y-53614236D02*
X90211800Y-53649950D01*
X90211800Y-53649950D02*
X90640371Y-53846379D01*
X90640371Y-53846379D02*
X92354657Y-55774950D01*
X92354657Y-55774950D02*
X92354657Y-53917807D01*
X89354657Y-50828522D02*
X89354657Y-52257093D01*
X89354657Y-52257093D02*
X90783228Y-52578522D01*
X90783228Y-52578522D02*
X90640371Y-52417807D01*
X90640371Y-52417807D02*
X90497514Y-52114236D01*
X90497514Y-52114236D02*
X90497514Y-51399950D01*
X90497514Y-51399950D02*
X90640371Y-51132093D01*
X90640371Y-51132093D02*
X90783228Y-51007093D01*
X90783228Y-51007093D02*
X91068942Y-50899950D01*
X91068942Y-50899950D02*
X91783228Y-50989236D01*
X91783228Y-50989236D02*
X92068942Y-51167807D01*
X92068942Y-51167807D02*
X92211800Y-51328522D01*
X92211800Y-51328522D02*
X92354657Y-51632093D01*
X92354657Y-51632093D02*
X92354657Y-52346379D01*
X92354657Y-52346379D02*
X92211800Y-52614236D01*
X92211800Y-52614236D02*
X92068942Y-52739236D01*
D11*
X130820025Y-24081828D02*
X131320025Y-25581828D01*
X131320025Y-25581828D02*
X131820025Y-24081828D01*
X133105739Y-25581828D02*
X132248596Y-25581828D01*
X132677167Y-25581828D02*
X132677167Y-24081828D01*
X132677167Y-24081828D02*
X132534310Y-24296114D01*
X132534310Y-24296114D02*
X132391453Y-24438971D01*
X132391453Y-24438971D02*
X132248596Y-24510400D01*
X133748595Y-25438971D02*
X133820024Y-25510400D01*
X133820024Y-25510400D02*
X133748595Y-25581828D01*
X133748595Y-25581828D02*
X133677167Y-25510400D01*
X133677167Y-25510400D02*
X133748595Y-25438971D01*
X133748595Y-25438971D02*
X133748595Y-25581828D01*
X134748596Y-24081828D02*
X134891453Y-24081828D01*
X134891453Y-24081828D02*
X135034310Y-24153257D01*
X135034310Y-24153257D02*
X135105739Y-24224685D01*
X135105739Y-24224685D02*
X135177167Y-24367542D01*
X135177167Y-24367542D02*
X135248596Y-24653257D01*
X135248596Y-24653257D02*
X135248596Y-25010400D01*
X135248596Y-25010400D02*
X135177167Y-25296114D01*
X135177167Y-25296114D02*
X135105739Y-25438971D01*
X135105739Y-25438971D02*
X135034310Y-25510400D01*
X135034310Y-25510400D02*
X134891453Y-25581828D01*
X134891453Y-25581828D02*
X134748596Y-25581828D01*
X134748596Y-25581828D02*
X134605739Y-25510400D01*
X134605739Y-25510400D02*
X134534310Y-25438971D01*
X134534310Y-25438971D02*
X134462881Y-25296114D01*
X134462881Y-25296114D02*
X134391453Y-25010400D01*
X134391453Y-25010400D02*
X134391453Y-24653257D01*
X134391453Y-24653257D02*
X134462881Y-24367542D01*
X134462881Y-24367542D02*
X134534310Y-24224685D01*
X134534310Y-24224685D02*
X134605739Y-24153257D01*
X134605739Y-24153257D02*
X134748596Y-24081828D01*
D10*
X121269400Y-62308150D02*
X121412257Y-61897436D01*
X121412257Y-61897436D02*
X121412257Y-61183150D01*
X121412257Y-61183150D02*
X121269400Y-60879579D01*
X121269400Y-60879579D02*
X121126542Y-60718864D01*
X121126542Y-60718864D02*
X120840828Y-60540293D01*
X120840828Y-60540293D02*
X120555114Y-60504579D01*
X120555114Y-60504579D02*
X120269400Y-60611721D01*
X120269400Y-60611721D02*
X120126542Y-60736721D01*
X120126542Y-60736721D02*
X119983685Y-61004579D01*
X119983685Y-61004579D02*
X119840828Y-61558150D01*
X119840828Y-61558150D02*
X119697971Y-61826007D01*
X119697971Y-61826007D02*
X119555114Y-61951007D01*
X119555114Y-61951007D02*
X119269400Y-62058150D01*
X119269400Y-62058150D02*
X118983685Y-62022436D01*
X118983685Y-62022436D02*
X118697971Y-61843864D01*
X118697971Y-61843864D02*
X118555114Y-61683150D01*
X118555114Y-61683150D02*
X118412257Y-61379579D01*
X118412257Y-61379579D02*
X118412257Y-60665293D01*
X118412257Y-60665293D02*
X118555114Y-60254579D01*
X119840828Y-59129578D02*
X119840828Y-58129578D01*
X121412257Y-57897436D02*
X121412257Y-59326007D01*
X121412257Y-59326007D02*
X118412257Y-58951007D01*
X118412257Y-58951007D02*
X118412257Y-57522436D01*
X121412257Y-54897435D02*
X119983685Y-55718864D01*
X121412257Y-56611721D02*
X118412257Y-56236721D01*
X118412257Y-56236721D02*
X118412257Y-55093864D01*
X118412257Y-55093864D02*
X118555114Y-54826007D01*
X118555114Y-54826007D02*
X118697971Y-54701007D01*
X118697971Y-54701007D02*
X118983685Y-54593864D01*
X118983685Y-54593864D02*
X119412257Y-54647435D01*
X119412257Y-54647435D02*
X119697971Y-54826007D01*
X119697971Y-54826007D02*
X119840828Y-54986721D01*
X119840828Y-54986721D02*
X119983685Y-55290292D01*
X119983685Y-55290292D02*
X119983685Y-56433150D01*
X121412257Y-53611721D02*
X118412257Y-53236721D01*
X120555114Y-52218864D02*
X120555114Y-50790293D01*
X121412257Y-52611721D02*
X118412257Y-51236721D01*
X118412257Y-51236721D02*
X121412257Y-50611721D01*
X121412257Y-48183150D02*
X121412257Y-49611721D01*
X121412257Y-49611721D02*
X118412257Y-49236721D01*
X121412257Y-44754579D02*
X121412257Y-44183150D01*
X121412257Y-44183150D02*
X121269400Y-43879579D01*
X121269400Y-43879579D02*
X121126542Y-43718865D01*
X121126542Y-43718865D02*
X120697971Y-43379579D01*
X120697971Y-43379579D02*
X120126542Y-43165293D01*
X120126542Y-43165293D02*
X118983685Y-43022436D01*
X118983685Y-43022436D02*
X118697971Y-43129579D01*
X118697971Y-43129579D02*
X118555114Y-43254579D01*
X118555114Y-43254579D02*
X118412257Y-43522436D01*
X118412257Y-43522436D02*
X118412257Y-44093865D01*
X118412257Y-44093865D02*
X118555114Y-44397436D01*
X118555114Y-44397436D02*
X118697971Y-44558150D01*
X118697971Y-44558150D02*
X118983685Y-44736722D01*
X118983685Y-44736722D02*
X119697971Y-44826007D01*
X119697971Y-44826007D02*
X119983685Y-44718865D01*
X119983685Y-44718865D02*
X120126542Y-44593865D01*
X120126542Y-44593865D02*
X120269400Y-44326007D01*
X120269400Y-44326007D02*
X120269400Y-43754579D01*
X120269400Y-43754579D02*
X120126542Y-43451007D01*
X120126542Y-43451007D02*
X119983685Y-43290293D01*
X119983685Y-43290293D02*
X119697971Y-43111722D01*
D12*
X96691038Y-27659175D02*
X96691038Y-22659175D01*
X96691038Y-22659175D02*
X98357704Y-26230603D01*
X98357704Y-26230603D02*
X100024371Y-22659175D01*
X100024371Y-22659175D02*
X100024371Y-27659175D01*
X102405324Y-22659175D02*
X102405324Y-26706794D01*
X102405324Y-26706794D02*
X102643419Y-27182984D01*
X102643419Y-27182984D02*
X102881514Y-27421080D01*
X102881514Y-27421080D02*
X103357705Y-27659175D01*
X103357705Y-27659175D02*
X104310086Y-27659175D01*
X104310086Y-27659175D02*
X104786276Y-27421080D01*
X104786276Y-27421080D02*
X105024371Y-27182984D01*
X105024371Y-27182984D02*
X105262467Y-26706794D01*
X105262467Y-26706794D02*
X105262467Y-22659175D01*
X110024371Y-27659175D02*
X107643419Y-27659175D01*
X107643419Y-27659175D02*
X107643419Y-22659175D01*
X110976752Y-22659175D02*
X113833895Y-22659175D01*
X112405323Y-27659175D02*
X112405323Y-22659175D01*
X115500562Y-27659175D02*
X115500562Y-22659175D01*
X90262467Y-35708895D02*
X87881515Y-35708895D01*
X87881515Y-35708895D02*
X87881515Y-30708895D01*
X92881515Y-30708895D02*
X93833896Y-30708895D01*
X93833896Y-30708895D02*
X94310086Y-30946990D01*
X94310086Y-30946990D02*
X94786277Y-31423180D01*
X94786277Y-31423180D02*
X95024372Y-32375561D01*
X95024372Y-32375561D02*
X95024372Y-34042228D01*
X95024372Y-34042228D02*
X94786277Y-34994609D01*
X94786277Y-34994609D02*
X94310086Y-35470800D01*
X94310086Y-35470800D02*
X93833896Y-35708895D01*
X93833896Y-35708895D02*
X92881515Y-35708895D01*
X92881515Y-35708895D02*
X92405324Y-35470800D01*
X92405324Y-35470800D02*
X91929134Y-34994609D01*
X91929134Y-34994609D02*
X91691038Y-34042228D01*
X91691038Y-34042228D02*
X91691038Y-32375561D01*
X91691038Y-32375561D02*
X91929134Y-31423180D01*
X91929134Y-31423180D02*
X92405324Y-30946990D01*
X92405324Y-30946990D02*
X92881515Y-30708895D01*
X98119610Y-30708895D02*
X99071991Y-30708895D01*
X99071991Y-30708895D02*
X99548181Y-30946990D01*
X99548181Y-30946990D02*
X100024372Y-31423180D01*
X100024372Y-31423180D02*
X100262467Y-32375561D01*
X100262467Y-32375561D02*
X100262467Y-34042228D01*
X100262467Y-34042228D02*
X100024372Y-34994609D01*
X100024372Y-34994609D02*
X99548181Y-35470800D01*
X99548181Y-35470800D02*
X99071991Y-35708895D01*
X99071991Y-35708895D02*
X98119610Y-35708895D01*
X98119610Y-35708895D02*
X97643419Y-35470800D01*
X97643419Y-35470800D02*
X97167229Y-34994609D01*
X97167229Y-34994609D02*
X96929133Y-34042228D01*
X96929133Y-34042228D02*
X96929133Y-32375561D01*
X96929133Y-32375561D02*
X97167229Y-31423180D01*
X97167229Y-31423180D02*
X97643419Y-30946990D01*
X97643419Y-30946990D02*
X98119610Y-30708895D01*
X102405324Y-35708895D02*
X102405324Y-30708895D01*
X102405324Y-30708895D02*
X104310086Y-30708895D01*
X104310086Y-30708895D02*
X104786276Y-30946990D01*
X104786276Y-30946990D02*
X105024371Y-31185085D01*
X105024371Y-31185085D02*
X105262467Y-31661276D01*
X105262467Y-31661276D02*
X105262467Y-32375561D01*
X105262467Y-32375561D02*
X105024371Y-32851752D01*
X105024371Y-32851752D02*
X104786276Y-33089847D01*
X104786276Y-33089847D02*
X104310086Y-33327942D01*
X104310086Y-33327942D02*
X102405324Y-33327942D01*
X109071990Y-33089847D02*
X109786276Y-33327942D01*
X109786276Y-33327942D02*
X110024371Y-33566038D01*
X110024371Y-33566038D02*
X110262467Y-34042228D01*
X110262467Y-34042228D02*
X110262467Y-34756514D01*
X110262467Y-34756514D02*
X110024371Y-35232704D01*
X110024371Y-35232704D02*
X109786276Y-35470800D01*
X109786276Y-35470800D02*
X109310086Y-35708895D01*
X109310086Y-35708895D02*
X107405324Y-35708895D01*
X107405324Y-35708895D02*
X107405324Y-30708895D01*
X107405324Y-30708895D02*
X109071990Y-30708895D01*
X109071990Y-30708895D02*
X109548181Y-30946990D01*
X109548181Y-30946990D02*
X109786276Y-31185085D01*
X109786276Y-31185085D02*
X110024371Y-31661276D01*
X110024371Y-31661276D02*
X110024371Y-32137466D01*
X110024371Y-32137466D02*
X109786276Y-32613657D01*
X109786276Y-32613657D02*
X109548181Y-32851752D01*
X109548181Y-32851752D02*
X109071990Y-33089847D01*
X109071990Y-33089847D02*
X107405324Y-33089847D01*
X112167228Y-34280323D02*
X114548181Y-34280323D01*
X111691038Y-35708895D02*
X113357705Y-30708895D01*
X113357705Y-30708895D02*
X115024371Y-35708895D01*
X119548181Y-35232704D02*
X119310085Y-35470800D01*
X119310085Y-35470800D02*
X118595800Y-35708895D01*
X118595800Y-35708895D02*
X118119609Y-35708895D01*
X118119609Y-35708895D02*
X117405323Y-35470800D01*
X117405323Y-35470800D02*
X116929133Y-34994609D01*
X116929133Y-34994609D02*
X116691038Y-34518419D01*
X116691038Y-34518419D02*
X116452942Y-33566038D01*
X116452942Y-33566038D02*
X116452942Y-32851752D01*
X116452942Y-32851752D02*
X116691038Y-31899371D01*
X116691038Y-31899371D02*
X116929133Y-31423180D01*
X116929133Y-31423180D02*
X117405323Y-30946990D01*
X117405323Y-30946990D02*
X118119609Y-30708895D01*
X118119609Y-30708895D02*
X118595800Y-30708895D01*
X118595800Y-30708895D02*
X119310085Y-30946990D01*
X119310085Y-30946990D02*
X119548181Y-31185085D01*
X121691038Y-35708895D02*
X121691038Y-30708895D01*
X124548181Y-35708895D02*
X122405323Y-32851752D01*
X124548181Y-30708895D02*
X121691038Y-33566038D01*
D13*
X133287419Y-33810533D02*
X134001704Y-33810533D01*
X134001704Y-33810533D02*
X134144561Y-33858152D01*
X134144561Y-33858152D02*
X134239800Y-33953390D01*
X134239800Y-33953390D02*
X134287419Y-34096247D01*
X134287419Y-34096247D02*
X134287419Y-34191485D01*
X134287419Y-32810533D02*
X134287419Y-33381961D01*
X134287419Y-33096247D02*
X133287419Y-33096247D01*
X133287419Y-33096247D02*
X133430276Y-33191485D01*
X133430276Y-33191485D02*
X133525514Y-33286723D01*
X133525514Y-33286723D02*
X133573133Y-33381961D01*
X134262019Y-58614409D02*
X133262019Y-58489409D01*
X133262019Y-58489409D02*
X133262019Y-58275123D01*
X133262019Y-58275123D02*
X133309638Y-58152504D01*
X133309638Y-58152504D02*
X133404876Y-58078695D01*
X133404876Y-58078695D02*
X133500114Y-58047743D01*
X133500114Y-58047743D02*
X133690590Y-58028695D01*
X133690590Y-58028695D02*
X133833447Y-58046552D01*
X133833447Y-58046552D02*
X134023923Y-58113219D01*
X134023923Y-58113219D02*
X134119161Y-58167981D01*
X134119161Y-58167981D02*
X134214400Y-58265600D01*
X134214400Y-58265600D02*
X134262019Y-58400123D01*
X134262019Y-58400123D02*
X134262019Y-58614409D01*
X133738209Y-57648933D02*
X133738209Y-57348933D01*
X134262019Y-57285838D02*
X134262019Y-57714409D01*
X134262019Y-57714409D02*
X133262019Y-57589409D01*
X133262019Y-57589409D02*
X133262019Y-57160838D01*
X134262019Y-56857266D02*
X134262019Y-56685837D01*
X134262019Y-56685837D02*
X134214400Y-56594171D01*
X134214400Y-56594171D02*
X134166780Y-56545361D01*
X134166780Y-56545361D02*
X134023923Y-56441790D01*
X134023923Y-56441790D02*
X133833447Y-56375123D01*
X133833447Y-56375123D02*
X133452495Y-56327504D01*
X133452495Y-56327504D02*
X133357257Y-56358457D01*
X133357257Y-56358457D02*
X133309638Y-56395361D01*
X133309638Y-56395361D02*
X133262019Y-56475123D01*
X133262019Y-56475123D02*
X133262019Y-56646552D01*
X133262019Y-56646552D02*
X133309638Y-56738218D01*
X133309638Y-56738218D02*
X133357257Y-56787028D01*
X133357257Y-56787028D02*
X133452495Y-56841790D01*
X133452495Y-56841790D02*
X133690590Y-56871552D01*
X133690590Y-56871552D02*
X133785828Y-56840599D01*
X133785828Y-56840599D02*
X133833447Y-56803695D01*
X133833447Y-56803695D02*
X133881066Y-56723933D01*
X133881066Y-56723933D02*
X133881066Y-56552504D01*
X133881066Y-56552504D02*
X133833447Y-56460837D01*
X133833447Y-56460837D02*
X133785828Y-56412028D01*
X133785828Y-56412028D02*
X133690590Y-56357266D01*
X134357257Y-56269171D02*
X134357257Y-55583456D01*
X134214400Y-55394171D02*
X134262019Y-55271552D01*
X134262019Y-55271552D02*
X134262019Y-55057266D01*
X134262019Y-55057266D02*
X134214400Y-54965600D01*
X134214400Y-54965600D02*
X134166780Y-54916790D01*
X134166780Y-54916790D02*
X134071542Y-54862028D01*
X134071542Y-54862028D02*
X133976304Y-54850123D01*
X133976304Y-54850123D02*
X133881066Y-54881076D01*
X133881066Y-54881076D02*
X133833447Y-54917980D01*
X133833447Y-54917980D02*
X133785828Y-54997742D01*
X133785828Y-54997742D02*
X133738209Y-55163219D01*
X133738209Y-55163219D02*
X133690590Y-55242980D01*
X133690590Y-55242980D02*
X133642971Y-55279885D01*
X133642971Y-55279885D02*
X133547733Y-55310838D01*
X133547733Y-55310838D02*
X133452495Y-55298933D01*
X133452495Y-55298933D02*
X133357257Y-55244171D01*
X133357257Y-55244171D02*
X133309638Y-55195361D01*
X133309638Y-55195361D02*
X133262019Y-55103695D01*
X133262019Y-55103695D02*
X133262019Y-54889409D01*
X133262019Y-54889409D02*
X133309638Y-54766790D01*
X134262019Y-54371552D02*
X134214400Y-54451314D01*
X134214400Y-54451314D02*
X134166780Y-54488218D01*
X134166780Y-54488218D02*
X134071542Y-54519171D01*
X134071542Y-54519171D02*
X133785828Y-54483457D01*
X133785828Y-54483457D02*
X133690590Y-54428695D01*
X133690590Y-54428695D02*
X133642971Y-54379885D01*
X133642971Y-54379885D02*
X133595352Y-54288218D01*
X133595352Y-54288218D02*
X133595352Y-54159647D01*
X133595352Y-54159647D02*
X133642971Y-54079885D01*
X133642971Y-54079885D02*
X133690590Y-54042980D01*
X133690590Y-54042980D02*
X133785828Y-54012028D01*
X133785828Y-54012028D02*
X134071542Y-54047742D01*
X134071542Y-54047742D02*
X134166780Y-54102504D01*
X134166780Y-54102504D02*
X134214400Y-54151314D01*
X134214400Y-54151314D02*
X134262019Y-54242980D01*
X134262019Y-54242980D02*
X134262019Y-54371552D01*
X134214400Y-53294171D02*
X134262019Y-53385837D01*
X134262019Y-53385837D02*
X134262019Y-53557266D01*
X134262019Y-53557266D02*
X134214400Y-53637028D01*
X134214400Y-53637028D02*
X134166780Y-53673932D01*
X134166780Y-53673932D02*
X134071542Y-53704885D01*
X134071542Y-53704885D02*
X133785828Y-53669171D01*
X133785828Y-53669171D02*
X133690590Y-53614409D01*
X133690590Y-53614409D02*
X133642971Y-53565599D01*
X133642971Y-53565599D02*
X133595352Y-53473932D01*
X133595352Y-53473932D02*
X133595352Y-53302504D01*
X133595352Y-53302504D02*
X133642971Y-53222742D01*
X134262019Y-52914408D02*
X133262019Y-52789408D01*
X133881066Y-52781075D02*
X134262019Y-52571551D01*
X133595352Y-52488218D02*
X133976304Y-52878694D01*
X134214400Y-51837028D02*
X134262019Y-51928694D01*
X134262019Y-51928694D02*
X134262019Y-52100123D01*
X134262019Y-52100123D02*
X134214400Y-52179885D01*
X134214400Y-52179885D02*
X134119161Y-52210837D01*
X134119161Y-52210837D02*
X133738209Y-52163218D01*
X133738209Y-52163218D02*
X133642971Y-52108456D01*
X133642971Y-52108456D02*
X133595352Y-52016790D01*
X133595352Y-52016790D02*
X133595352Y-51845361D01*
X133595352Y-51845361D02*
X133642971Y-51765599D01*
X133642971Y-51765599D02*
X133738209Y-51734647D01*
X133738209Y-51734647D02*
X133833447Y-51746551D01*
X133833447Y-51746551D02*
X133928685Y-52187028D01*
X133595352Y-51459646D02*
X133595352Y-51116789D01*
X133262019Y-51289408D02*
X134119161Y-51396551D01*
X134119161Y-51396551D02*
X134214400Y-51365599D01*
X134214400Y-51365599D02*
X134262019Y-51285837D01*
X134262019Y-51285837D02*
X134262019Y-51200122D01*
D14*
X129734733Y-99544853D02*
X129734733Y-100270568D01*
X129734733Y-100270568D02*
X129686352Y-100415711D01*
X129686352Y-100415711D02*
X129589590Y-100512473D01*
X129589590Y-100512473D02*
X129444447Y-100560853D01*
X129444447Y-100560853D02*
X129347685Y-100560853D01*
X130653971Y-99883520D02*
X130653971Y-100560853D01*
X130412066Y-99496473D02*
X130170161Y-100222187D01*
X130170161Y-100222187D02*
X130799114Y-100222187D01*
X80334152Y-100560853D02*
X80461152Y-99544853D01*
X80461152Y-99544853D02*
X80678866Y-99544853D01*
X80678866Y-99544853D02*
X80803447Y-99593234D01*
X80803447Y-99593234D02*
X80878438Y-99689996D01*
X80878438Y-99689996D02*
X80909886Y-99786758D01*
X80909886Y-99786758D02*
X80929238Y-99980282D01*
X80929238Y-99980282D02*
X80911095Y-100125425D01*
X80911095Y-100125425D02*
X80843362Y-100318949D01*
X80843362Y-100318949D02*
X80787724Y-100415711D01*
X80787724Y-100415711D02*
X80688543Y-100512473D01*
X80688543Y-100512473D02*
X80551866Y-100560853D01*
X80551866Y-100560853D02*
X80334152Y-100560853D01*
X81619876Y-100028663D02*
X81744457Y-100077044D01*
X81744457Y-100077044D02*
X81781952Y-100125425D01*
X81781952Y-100125425D02*
X81813400Y-100222187D01*
X81813400Y-100222187D02*
X81795257Y-100367330D01*
X81795257Y-100367330D02*
X81739619Y-100464092D01*
X81739619Y-100464092D02*
X81690028Y-100512473D01*
X81690028Y-100512473D02*
X81596895Y-100560853D01*
X81596895Y-100560853D02*
X81248552Y-100560853D01*
X81248552Y-100560853D02*
X81375552Y-99544853D01*
X81375552Y-99544853D02*
X81680352Y-99544853D01*
X81680352Y-99544853D02*
X81761390Y-99593234D01*
X81761390Y-99593234D02*
X81798886Y-99641615D01*
X81798886Y-99641615D02*
X81830333Y-99738377D01*
X81830333Y-99738377D02*
X81818238Y-99835139D01*
X81818238Y-99835139D02*
X81762600Y-99931901D01*
X81762600Y-99931901D02*
X81713009Y-99980282D01*
X81713009Y-99980282D02*
X81619876Y-100028663D01*
X81619876Y-100028663D02*
X81315076Y-100028663D01*
X82234314Y-99641615D02*
X82283905Y-99593234D01*
X82283905Y-99593234D02*
X82377038Y-99544853D01*
X82377038Y-99544853D02*
X82594752Y-99544853D01*
X82594752Y-99544853D02*
X82675790Y-99593234D01*
X82675790Y-99593234D02*
X82713286Y-99641615D01*
X82713286Y-99641615D02*
X82744733Y-99738377D01*
X82744733Y-99738377D02*
X82732638Y-99835139D01*
X82732638Y-99835139D02*
X82670952Y-99980282D01*
X82670952Y-99980282D02*
X82075866Y-100560853D01*
X82075866Y-100560853D02*
X82641924Y-100560853D01*
X83596238Y-99544853D02*
X83160809Y-99544853D01*
X83160809Y-99544853D02*
X83056790Y-100028663D01*
X83056790Y-100028663D02*
X83106381Y-99980282D01*
X83106381Y-99980282D02*
X83199514Y-99931901D01*
X83199514Y-99931901D02*
X83417228Y-99931901D01*
X83417228Y-99931901D02*
X83498266Y-99980282D01*
X83498266Y-99980282D02*
X83535762Y-100028663D01*
X83535762Y-100028663D02*
X83567209Y-100125425D01*
X83567209Y-100125425D02*
X83536971Y-100367330D01*
X83536971Y-100367330D02*
X83481333Y-100464092D01*
X83481333Y-100464092D02*
X83431743Y-100512473D01*
X83431743Y-100512473D02*
X83338609Y-100560853D01*
X83338609Y-100560853D02*
X83120895Y-100560853D01*
X83120895Y-100560853D02*
X83039857Y-100512473D01*
X83039857Y-100512473D02*
X83002362Y-100464092D01*
X83674857Y-100657615D02*
X84371542Y-100657615D01*
X84601352Y-100560853D02*
X84728352Y-99544853D01*
X84728352Y-99544853D02*
X85076695Y-99544853D01*
X85076695Y-99544853D02*
X85157733Y-99593234D01*
X85157733Y-99593234D02*
X85195228Y-99641615D01*
X85195228Y-99641615D02*
X85226676Y-99738377D01*
X85226676Y-99738377D02*
X85208533Y-99883520D01*
X85208533Y-99883520D02*
X85152895Y-99980282D01*
X85152895Y-99980282D02*
X85103305Y-100028663D01*
X85103305Y-100028663D02*
X85010171Y-100077044D01*
X85010171Y-100077044D02*
X84661828Y-100077044D01*
X85515752Y-100560853D02*
X85600419Y-99883520D01*
X85642752Y-99544853D02*
X85593162Y-99593234D01*
X85593162Y-99593234D02*
X85630657Y-99641615D01*
X85630657Y-99641615D02*
X85680247Y-99593234D01*
X85680247Y-99593234D02*
X85642752Y-99544853D01*
X85642752Y-99544853D02*
X85630657Y-99641615D01*
X86035848Y-99883520D02*
X85951181Y-100560853D01*
X86023753Y-99980282D02*
X86073343Y-99931901D01*
X86073343Y-99931901D02*
X86166476Y-99883520D01*
X86166476Y-99883520D02*
X86297105Y-99883520D01*
X86297105Y-99883520D02*
X86378143Y-99931901D01*
X86378143Y-99931901D02*
X86409591Y-100028663D01*
X86409591Y-100028663D02*
X86343067Y-100560853D01*
X86741000Y-100512473D02*
X86822038Y-100560853D01*
X86822038Y-100560853D02*
X86996209Y-100560853D01*
X86996209Y-100560853D02*
X87089343Y-100512473D01*
X87089343Y-100512473D02*
X87144981Y-100415711D01*
X87144981Y-100415711D02*
X87151029Y-100367330D01*
X87151029Y-100367330D02*
X87119581Y-100270568D01*
X87119581Y-100270568D02*
X87038543Y-100222187D01*
X87038543Y-100222187D02*
X86907914Y-100222187D01*
X86907914Y-100222187D02*
X86826876Y-100173806D01*
X86826876Y-100173806D02*
X86795429Y-100077044D01*
X86795429Y-100077044D02*
X86801476Y-100028663D01*
X86801476Y-100028663D02*
X86857114Y-99931901D01*
X86857114Y-99931901D02*
X86950248Y-99883520D01*
X86950248Y-99883520D02*
X87080876Y-99883520D01*
X87080876Y-99883520D02*
X87161914Y-99931901D01*
X87288915Y-100657615D02*
X87985600Y-100657615D01*
X88215410Y-100560853D02*
X88342410Y-99544853D01*
X88342410Y-99544853D02*
X88556496Y-100270568D01*
X88556496Y-100270568D02*
X88952010Y-99544853D01*
X88952010Y-99544853D02*
X88825010Y-100560853D01*
X89391068Y-100560853D02*
X89310030Y-100512473D01*
X89310030Y-100512473D02*
X89272534Y-100464092D01*
X89272534Y-100464092D02*
X89241087Y-100367330D01*
X89241087Y-100367330D02*
X89277373Y-100077044D01*
X89277373Y-100077044D02*
X89333011Y-99980282D01*
X89333011Y-99980282D02*
X89382601Y-99931901D01*
X89382601Y-99931901D02*
X89475734Y-99883520D01*
X89475734Y-99883520D02*
X89606363Y-99883520D01*
X89606363Y-99883520D02*
X89687401Y-99931901D01*
X89687401Y-99931901D02*
X89724896Y-99980282D01*
X89724896Y-99980282D02*
X89756344Y-100077044D01*
X89756344Y-100077044D02*
X89720058Y-100367330D01*
X89720058Y-100367330D02*
X89664420Y-100464092D01*
X89664420Y-100464092D02*
X89614830Y-100512473D01*
X89614830Y-100512473D02*
X89521696Y-100560853D01*
X89521696Y-100560853D02*
X89391068Y-100560853D01*
X90564306Y-99883520D02*
X90479639Y-100560853D01*
X90172420Y-99883520D02*
X90105896Y-100415711D01*
X90105896Y-100415711D02*
X90137344Y-100512473D01*
X90137344Y-100512473D02*
X90218382Y-100560853D01*
X90218382Y-100560853D02*
X90349010Y-100560853D01*
X90349010Y-100560853D02*
X90442144Y-100512473D01*
X90442144Y-100512473D02*
X90491734Y-100464092D01*
X90999734Y-99883520D02*
X90915067Y-100560853D01*
X90987639Y-99980282D02*
X91037229Y-99931901D01*
X91037229Y-99931901D02*
X91130362Y-99883520D01*
X91130362Y-99883520D02*
X91260991Y-99883520D01*
X91260991Y-99883520D02*
X91342029Y-99931901D01*
X91342029Y-99931901D02*
X91373477Y-100028663D01*
X91373477Y-100028663D02*
X91306953Y-100560853D01*
X91696419Y-99883520D02*
X92044762Y-99883520D01*
X91869381Y-99544853D02*
X91760524Y-100415711D01*
X91760524Y-100415711D02*
X91791972Y-100512473D01*
X91791972Y-100512473D02*
X91873010Y-100560853D01*
X91873010Y-100560853D02*
X91960095Y-100560853D01*
X92264895Y-100560853D02*
X92349562Y-99883520D01*
X92391895Y-99544853D02*
X92342305Y-99593234D01*
X92342305Y-99593234D02*
X92379800Y-99641615D01*
X92379800Y-99641615D02*
X92429390Y-99593234D01*
X92429390Y-99593234D02*
X92391895Y-99544853D01*
X92391895Y-99544853D02*
X92379800Y-99641615D01*
X92784991Y-99883520D02*
X92700324Y-100560853D01*
X92772896Y-99980282D02*
X92822486Y-99931901D01*
X92822486Y-99931901D02*
X92915619Y-99883520D01*
X92915619Y-99883520D02*
X93046248Y-99883520D01*
X93046248Y-99883520D02*
X93127286Y-99931901D01*
X93127286Y-99931901D02*
X93158734Y-100028663D01*
X93158734Y-100028663D02*
X93092210Y-100560853D01*
X94004191Y-99883520D02*
X93901381Y-100705996D01*
X93901381Y-100705996D02*
X93845743Y-100802758D01*
X93845743Y-100802758D02*
X93796152Y-100851139D01*
X93796152Y-100851139D02*
X93703019Y-100899520D01*
X93703019Y-100899520D02*
X93572391Y-100899520D01*
X93572391Y-100899520D02*
X93491352Y-100851139D01*
X93925572Y-100512473D02*
X93832438Y-100560853D01*
X93832438Y-100560853D02*
X93658267Y-100560853D01*
X93658267Y-100560853D02*
X93577229Y-100512473D01*
X93577229Y-100512473D02*
X93539733Y-100464092D01*
X93539733Y-100464092D02*
X93508286Y-100367330D01*
X93508286Y-100367330D02*
X93544572Y-100077044D01*
X93544572Y-100077044D02*
X93600210Y-99980282D01*
X93600210Y-99980282D02*
X93649800Y-99931901D01*
X93649800Y-99931901D02*
X93742933Y-99883520D01*
X93742933Y-99883520D02*
X93917105Y-99883520D01*
X93917105Y-99883520D02*
X93998143Y-99931901D01*
X94354952Y-100560853D02*
X94481952Y-99544853D01*
X94421476Y-100028663D02*
X94943990Y-100028663D01*
X94877466Y-100560853D02*
X95004466Y-99544853D01*
X95443524Y-100560853D02*
X95362486Y-100512473D01*
X95362486Y-100512473D02*
X95324990Y-100464092D01*
X95324990Y-100464092D02*
X95293543Y-100367330D01*
X95293543Y-100367330D02*
X95329829Y-100077044D01*
X95329829Y-100077044D02*
X95385467Y-99980282D01*
X95385467Y-99980282D02*
X95435057Y-99931901D01*
X95435057Y-99931901D02*
X95528190Y-99883520D01*
X95528190Y-99883520D02*
X95658819Y-99883520D01*
X95658819Y-99883520D02*
X95739857Y-99931901D01*
X95739857Y-99931901D02*
X95777352Y-99980282D01*
X95777352Y-99980282D02*
X95808800Y-100077044D01*
X95808800Y-100077044D02*
X95772514Y-100367330D01*
X95772514Y-100367330D02*
X95716876Y-100464092D01*
X95716876Y-100464092D02*
X95667286Y-100512473D01*
X95667286Y-100512473D02*
X95574152Y-100560853D01*
X95574152Y-100560853D02*
X95443524Y-100560853D01*
X96270838Y-100560853D02*
X96189800Y-100512473D01*
X96189800Y-100512473D02*
X96158352Y-100415711D01*
X96158352Y-100415711D02*
X96267209Y-99544853D01*
X96973571Y-100512473D02*
X96880437Y-100560853D01*
X96880437Y-100560853D02*
X96706266Y-100560853D01*
X96706266Y-100560853D02*
X96625228Y-100512473D01*
X96625228Y-100512473D02*
X96593780Y-100415711D01*
X96593780Y-100415711D02*
X96642161Y-100028663D01*
X96642161Y-100028663D02*
X96697799Y-99931901D01*
X96697799Y-99931901D02*
X96790933Y-99883520D01*
X96790933Y-99883520D02*
X96965104Y-99883520D01*
X96965104Y-99883520D02*
X97046142Y-99931901D01*
X97046142Y-99931901D02*
X97077590Y-100028663D01*
X97077590Y-100028663D02*
X97065494Y-100125425D01*
X97065494Y-100125425D02*
X96617971Y-100222187D01*
X97365456Y-100512473D02*
X97446494Y-100560853D01*
X97446494Y-100560853D02*
X97620665Y-100560853D01*
X97620665Y-100560853D02*
X97713799Y-100512473D01*
X97713799Y-100512473D02*
X97769437Y-100415711D01*
X97769437Y-100415711D02*
X97775485Y-100367330D01*
X97775485Y-100367330D02*
X97744037Y-100270568D01*
X97744037Y-100270568D02*
X97662999Y-100222187D01*
X97662999Y-100222187D02*
X97532370Y-100222187D01*
X97532370Y-100222187D02*
X97451332Y-100173806D01*
X97451332Y-100173806D02*
X97419885Y-100077044D01*
X97419885Y-100077044D02*
X97425932Y-100028663D01*
X97425932Y-100028663D02*
X97481570Y-99931901D01*
X97481570Y-99931901D02*
X97574704Y-99883520D01*
X97574704Y-99883520D02*
X97705332Y-99883520D01*
X97705332Y-99883520D02*
X97786370Y-99931901D01*
X77396053Y-72677866D02*
X78121768Y-72677866D01*
X78121768Y-72677866D02*
X78266911Y-72726247D01*
X78266911Y-72726247D02*
X78363673Y-72823009D01*
X78363673Y-72823009D02*
X78412053Y-72968152D01*
X78412053Y-72968152D02*
X78412053Y-73064914D01*
X77396053Y-72290819D02*
X77396053Y-71661866D01*
X77396053Y-71661866D02*
X77783101Y-72000533D01*
X77783101Y-72000533D02*
X77783101Y-71855390D01*
X77783101Y-71855390D02*
X77831482Y-71758628D01*
X77831482Y-71758628D02*
X77879863Y-71710247D01*
X77879863Y-71710247D02*
X77976625Y-71661866D01*
X77976625Y-71661866D02*
X78218530Y-71661866D01*
X78218530Y-71661866D02*
X78315292Y-71710247D01*
X78315292Y-71710247D02*
X78363673Y-71758628D01*
X78363673Y-71758628D02*
X78412053Y-71855390D01*
X78412053Y-71855390D02*
X78412053Y-72145676D01*
X78412053Y-72145676D02*
X78363673Y-72242438D01*
X78363673Y-72242438D02*
X78315292Y-72290819D01*
X77904053Y-42721589D02*
X76888053Y-42594589D01*
X76888053Y-42594589D02*
X76888053Y-42376875D01*
X76888053Y-42376875D02*
X76936434Y-42252294D01*
X76936434Y-42252294D02*
X77033196Y-42177303D01*
X77033196Y-42177303D02*
X77129958Y-42145856D01*
X77129958Y-42145856D02*
X77323482Y-42126503D01*
X77323482Y-42126503D02*
X77468625Y-42144646D01*
X77468625Y-42144646D02*
X77662149Y-42212379D01*
X77662149Y-42212379D02*
X77758911Y-42268017D01*
X77758911Y-42268017D02*
X77855673Y-42367198D01*
X77855673Y-42367198D02*
X77904053Y-42503875D01*
X77904053Y-42503875D02*
X77904053Y-42721589D01*
X77371863Y-41435865D02*
X77420244Y-41311284D01*
X77420244Y-41311284D02*
X77468625Y-41273789D01*
X77468625Y-41273789D02*
X77565387Y-41242341D01*
X77565387Y-41242341D02*
X77710530Y-41260484D01*
X77710530Y-41260484D02*
X77807292Y-41316122D01*
X77807292Y-41316122D02*
X77855673Y-41365713D01*
X77855673Y-41365713D02*
X77904053Y-41458846D01*
X77904053Y-41458846D02*
X77904053Y-41807189D01*
X77904053Y-41807189D02*
X76888053Y-41680189D01*
X76888053Y-41680189D02*
X76888053Y-41375389D01*
X76888053Y-41375389D02*
X76936434Y-41294351D01*
X76936434Y-41294351D02*
X76984815Y-41256856D01*
X76984815Y-41256856D02*
X77081577Y-41225408D01*
X77081577Y-41225408D02*
X77178339Y-41237503D01*
X77178339Y-41237503D02*
X77275101Y-41293141D01*
X77275101Y-41293141D02*
X77323482Y-41342732D01*
X77323482Y-41342732D02*
X77371863Y-41435865D01*
X77371863Y-41435865D02*
X77371863Y-41740665D01*
X76984815Y-40821427D02*
X76936434Y-40771836D01*
X76936434Y-40771836D02*
X76888053Y-40678703D01*
X76888053Y-40678703D02*
X76888053Y-40460989D01*
X76888053Y-40460989D02*
X76936434Y-40379951D01*
X76936434Y-40379951D02*
X76984815Y-40342456D01*
X76984815Y-40342456D02*
X77081577Y-40311008D01*
X77081577Y-40311008D02*
X77178339Y-40323103D01*
X77178339Y-40323103D02*
X77323482Y-40384789D01*
X77323482Y-40384789D02*
X77904053Y-40979875D01*
X77904053Y-40979875D02*
X77904053Y-40413817D01*
X76888053Y-39459503D02*
X76888053Y-39894932D01*
X76888053Y-39894932D02*
X77371863Y-39998951D01*
X77371863Y-39998951D02*
X77323482Y-39949360D01*
X77323482Y-39949360D02*
X77275101Y-39856227D01*
X77275101Y-39856227D02*
X77275101Y-39638513D01*
X77275101Y-39638513D02*
X77323482Y-39557475D01*
X77323482Y-39557475D02*
X77371863Y-39519979D01*
X77371863Y-39519979D02*
X77468625Y-39488532D01*
X77468625Y-39488532D02*
X77710530Y-39518770D01*
X77710530Y-39518770D02*
X77807292Y-39574408D01*
X77807292Y-39574408D02*
X77855673Y-39623999D01*
X77855673Y-39623999D02*
X77904053Y-39717132D01*
X77904053Y-39717132D02*
X77904053Y-39934846D01*
X77904053Y-39934846D02*
X77855673Y-40015884D01*
X77855673Y-40015884D02*
X77807292Y-40053379D01*
X78000815Y-39380884D02*
X78000815Y-38684199D01*
X77855673Y-38491884D02*
X77904053Y-38367303D01*
X77904053Y-38367303D02*
X77904053Y-38149589D01*
X77904053Y-38149589D02*
X77855673Y-38056456D01*
X77855673Y-38056456D02*
X77807292Y-38006865D01*
X77807292Y-38006865D02*
X77710530Y-37951227D01*
X77710530Y-37951227D02*
X77613768Y-37939132D01*
X77613768Y-37939132D02*
X77517006Y-37970579D01*
X77517006Y-37970579D02*
X77468625Y-38008075D01*
X77468625Y-38008075D02*
X77420244Y-38089113D01*
X77420244Y-38089113D02*
X77371863Y-38257236D01*
X77371863Y-38257236D02*
X77323482Y-38338275D01*
X77323482Y-38338275D02*
X77275101Y-38375770D01*
X77275101Y-38375770D02*
X77178339Y-38407217D01*
X77178339Y-38407217D02*
X77081577Y-38395122D01*
X77081577Y-38395122D02*
X76984815Y-38339484D01*
X76984815Y-38339484D02*
X76936434Y-38289894D01*
X76936434Y-38289894D02*
X76888053Y-38196760D01*
X76888053Y-38196760D02*
X76888053Y-37979046D01*
X76888053Y-37979046D02*
X76936434Y-37854465D01*
X77904053Y-37452903D02*
X77855673Y-37533941D01*
X77855673Y-37533941D02*
X77807292Y-37571437D01*
X77807292Y-37571437D02*
X77710530Y-37602884D01*
X77710530Y-37602884D02*
X77420244Y-37566599D01*
X77420244Y-37566599D02*
X77323482Y-37510960D01*
X77323482Y-37510960D02*
X77275101Y-37461370D01*
X77275101Y-37461370D02*
X77226720Y-37368237D01*
X77226720Y-37368237D02*
X77226720Y-37237608D01*
X77226720Y-37237608D02*
X77275101Y-37156570D01*
X77275101Y-37156570D02*
X77323482Y-37119075D01*
X77323482Y-37119075D02*
X77420244Y-37087627D01*
X77420244Y-37087627D02*
X77710530Y-37123913D01*
X77710530Y-37123913D02*
X77807292Y-37179551D01*
X77807292Y-37179551D02*
X77855673Y-37229141D01*
X77855673Y-37229141D02*
X77904053Y-37322275D01*
X77904053Y-37322275D02*
X77904053Y-37452903D01*
X77855673Y-36358285D02*
X77904053Y-36451418D01*
X77904053Y-36451418D02*
X77904053Y-36625589D01*
X77904053Y-36625589D02*
X77855673Y-36706627D01*
X77855673Y-36706627D02*
X77807292Y-36744123D01*
X77807292Y-36744123D02*
X77710530Y-36775570D01*
X77710530Y-36775570D02*
X77420244Y-36739285D01*
X77420244Y-36739285D02*
X77323482Y-36683646D01*
X77323482Y-36683646D02*
X77275101Y-36634056D01*
X77275101Y-36634056D02*
X77226720Y-36540923D01*
X77226720Y-36540923D02*
X77226720Y-36366751D01*
X77226720Y-36366751D02*
X77275101Y-36285713D01*
X77904053Y-35972447D02*
X76888053Y-35845447D01*
X77517006Y-35836980D02*
X77904053Y-35624104D01*
X77226720Y-35539437D02*
X77613768Y-35936161D01*
X77855673Y-34877827D02*
X77904053Y-34970961D01*
X77904053Y-34970961D02*
X77904053Y-35145132D01*
X77904053Y-35145132D02*
X77855673Y-35226170D01*
X77855673Y-35226170D02*
X77758911Y-35257618D01*
X77758911Y-35257618D02*
X77371863Y-35209237D01*
X77371863Y-35209237D02*
X77275101Y-35153599D01*
X77275101Y-35153599D02*
X77226720Y-35060465D01*
X77226720Y-35060465D02*
X77226720Y-34886294D01*
X77226720Y-34886294D02*
X77275101Y-34805256D01*
X77275101Y-34805256D02*
X77371863Y-34773808D01*
X77371863Y-34773808D02*
X77468625Y-34785904D01*
X77468625Y-34785904D02*
X77565387Y-35233427D01*
X77226720Y-34494409D02*
X77226720Y-34146066D01*
X76888053Y-34321447D02*
X77758911Y-34430304D01*
X77758911Y-34430304D02*
X77855673Y-34398856D01*
X77855673Y-34398856D02*
X77904053Y-34317818D01*
X77904053Y-34317818D02*
X77904053Y-34230733D01*
X78000815Y-34155742D02*
X78000815Y-33459057D01*
X77904053Y-33229247D02*
X76888053Y-33102247D01*
X76888053Y-33102247D02*
X77613768Y-32888161D01*
X77613768Y-32888161D02*
X76888053Y-32492647D01*
X76888053Y-32492647D02*
X77904053Y-32619647D01*
X77904053Y-32053589D02*
X77855673Y-32134627D01*
X77855673Y-32134627D02*
X77807292Y-32172123D01*
X77807292Y-32172123D02*
X77710530Y-32203570D01*
X77710530Y-32203570D02*
X77420244Y-32167285D01*
X77420244Y-32167285D02*
X77323482Y-32111646D01*
X77323482Y-32111646D02*
X77275101Y-32062056D01*
X77275101Y-32062056D02*
X77226720Y-31968923D01*
X77226720Y-31968923D02*
X77226720Y-31838294D01*
X77226720Y-31838294D02*
X77275101Y-31757256D01*
X77275101Y-31757256D02*
X77323482Y-31719761D01*
X77323482Y-31719761D02*
X77420244Y-31688313D01*
X77420244Y-31688313D02*
X77710530Y-31724599D01*
X77710530Y-31724599D02*
X77807292Y-31780237D01*
X77807292Y-31780237D02*
X77855673Y-31829827D01*
X77855673Y-31829827D02*
X77904053Y-31922961D01*
X77904053Y-31922961D02*
X77904053Y-32053589D01*
X77226720Y-30880351D02*
X77904053Y-30965018D01*
X77226720Y-31272237D02*
X77758911Y-31338761D01*
X77758911Y-31338761D02*
X77855673Y-31307313D01*
X77855673Y-31307313D02*
X77904053Y-31226275D01*
X77904053Y-31226275D02*
X77904053Y-31095647D01*
X77904053Y-31095647D02*
X77855673Y-31002513D01*
X77855673Y-31002513D02*
X77807292Y-30952923D01*
X77226720Y-30444923D02*
X77904053Y-30529590D01*
X77323482Y-30457018D02*
X77275101Y-30407428D01*
X77275101Y-30407428D02*
X77226720Y-30314295D01*
X77226720Y-30314295D02*
X77226720Y-30183666D01*
X77226720Y-30183666D02*
X77275101Y-30102628D01*
X77275101Y-30102628D02*
X77371863Y-30071180D01*
X77371863Y-30071180D02*
X77904053Y-30137704D01*
X77226720Y-29748238D02*
X77226720Y-29399895D01*
X76888053Y-29575276D02*
X77758911Y-29684133D01*
X77758911Y-29684133D02*
X77855673Y-29652685D01*
X77855673Y-29652685D02*
X77904053Y-29571647D01*
X77904053Y-29571647D02*
X77904053Y-29484562D01*
X77904053Y-29179762D02*
X77226720Y-29095095D01*
X76888053Y-29052762D02*
X76936434Y-29102352D01*
X76936434Y-29102352D02*
X76984815Y-29064857D01*
X76984815Y-29064857D02*
X76936434Y-29015267D01*
X76936434Y-29015267D02*
X76888053Y-29052762D01*
X76888053Y-29052762D02*
X76984815Y-29064857D01*
X77226720Y-28659666D02*
X77904053Y-28744333D01*
X77323482Y-28671761D02*
X77275101Y-28622171D01*
X77275101Y-28622171D02*
X77226720Y-28529038D01*
X77226720Y-28529038D02*
X77226720Y-28398409D01*
X77226720Y-28398409D02*
X77275101Y-28317371D01*
X77275101Y-28317371D02*
X77371863Y-28285923D01*
X77371863Y-28285923D02*
X77904053Y-28352447D01*
X77226720Y-27440466D02*
X78049196Y-27543276D01*
X78049196Y-27543276D02*
X78145958Y-27598914D01*
X78145958Y-27598914D02*
X78194339Y-27648505D01*
X78194339Y-27648505D02*
X78242720Y-27741638D01*
X78242720Y-27741638D02*
X78242720Y-27872266D01*
X78242720Y-27872266D02*
X78194339Y-27953305D01*
X77855673Y-27519086D02*
X77904053Y-27612219D01*
X77904053Y-27612219D02*
X77904053Y-27786390D01*
X77904053Y-27786390D02*
X77855673Y-27867428D01*
X77855673Y-27867428D02*
X77807292Y-27904924D01*
X77807292Y-27904924D02*
X77710530Y-27936371D01*
X77710530Y-27936371D02*
X77420244Y-27900086D01*
X77420244Y-27900086D02*
X77323482Y-27844447D01*
X77323482Y-27844447D02*
X77275101Y-27794857D01*
X77275101Y-27794857D02*
X77226720Y-27701724D01*
X77226720Y-27701724D02*
X77226720Y-27527552D01*
X77226720Y-27527552D02*
X77275101Y-27446514D01*
X77904053Y-27089705D02*
X76888053Y-26962705D01*
X77371863Y-27023181D02*
X77371863Y-26500667D01*
X77904053Y-26567191D02*
X76888053Y-26440191D01*
X77904053Y-26001133D02*
X77855673Y-26082171D01*
X77855673Y-26082171D02*
X77807292Y-26119667D01*
X77807292Y-26119667D02*
X77710530Y-26151114D01*
X77710530Y-26151114D02*
X77420244Y-26114829D01*
X77420244Y-26114829D02*
X77323482Y-26059190D01*
X77323482Y-26059190D02*
X77275101Y-26009600D01*
X77275101Y-26009600D02*
X77226720Y-25916467D01*
X77226720Y-25916467D02*
X77226720Y-25785838D01*
X77226720Y-25785838D02*
X77275101Y-25704800D01*
X77275101Y-25704800D02*
X77323482Y-25667305D01*
X77323482Y-25667305D02*
X77420244Y-25635857D01*
X77420244Y-25635857D02*
X77710530Y-25672143D01*
X77710530Y-25672143D02*
X77807292Y-25727781D01*
X77807292Y-25727781D02*
X77855673Y-25777371D01*
X77855673Y-25777371D02*
X77904053Y-25870505D01*
X77904053Y-25870505D02*
X77904053Y-26001133D01*
X77904053Y-25173819D02*
X77855673Y-25254857D01*
X77855673Y-25254857D02*
X77758911Y-25286305D01*
X77758911Y-25286305D02*
X76888053Y-25177448D01*
X77855673Y-24471086D02*
X77904053Y-24564220D01*
X77904053Y-24564220D02*
X77904053Y-24738391D01*
X77904053Y-24738391D02*
X77855673Y-24819429D01*
X77855673Y-24819429D02*
X77758911Y-24850877D01*
X77758911Y-24850877D02*
X77371863Y-24802496D01*
X77371863Y-24802496D02*
X77275101Y-24746858D01*
X77275101Y-24746858D02*
X77226720Y-24653724D01*
X77226720Y-24653724D02*
X77226720Y-24479553D01*
X77226720Y-24479553D02*
X77275101Y-24398515D01*
X77275101Y-24398515D02*
X77371863Y-24367067D01*
X77371863Y-24367067D02*
X77468625Y-24379163D01*
X77468625Y-24379163D02*
X77565387Y-24826686D01*
X77855673Y-24079201D02*
X77904053Y-23998163D01*
X77904053Y-23998163D02*
X77904053Y-23823992D01*
X77904053Y-23823992D02*
X77855673Y-23730858D01*
X77855673Y-23730858D02*
X77758911Y-23675220D01*
X77758911Y-23675220D02*
X77710530Y-23669173D01*
X77710530Y-23669173D02*
X77613768Y-23700620D01*
X77613768Y-23700620D02*
X77565387Y-23781658D01*
X77565387Y-23781658D02*
X77565387Y-23912287D01*
X77565387Y-23912287D02*
X77517006Y-23993325D01*
X77517006Y-23993325D02*
X77420244Y-24024773D01*
X77420244Y-24024773D02*
X77371863Y-24018725D01*
X77371863Y-24018725D02*
X77275101Y-23963087D01*
X77275101Y-23963087D02*
X77226720Y-23869953D01*
X77226720Y-23869953D02*
X77226720Y-23739325D01*
X77226720Y-23739325D02*
X77275101Y-23658287D01*
D15*
%TO.C,J1*%
X126174500Y-32099000D02*
X126174500Y-63087000D01*
X126174500Y-32099000D02*
X138874500Y-32099000D01*
X138874500Y-32099000D02*
X138874500Y-63087000D01*
X138874500Y-39084000D02*
X144843500Y-39084000D01*
X138874500Y-63087000D02*
X126174500Y-63087000D01*
X144843500Y-39084000D02*
X144843500Y-56102000D01*
X144843500Y-56102000D02*
X138874500Y-56102000D01*
D16*
%TO.C,J4*%
X79309100Y-105543400D02*
X79309100Y-92843400D01*
X86349100Y-111512400D02*
X86349100Y-105543400D01*
X125309100Y-105543400D02*
X125309100Y-111512400D01*
X125309100Y-111512400D02*
X86349100Y-111512400D01*
X132349100Y-92843400D02*
X79309100Y-92843400D01*
X132349100Y-92843400D02*
X132349100Y-105543400D01*
X132349100Y-105543400D02*
X79309100Y-105543400D01*
%TO.C,J3*%
X66865500Y-28358800D02*
X72834500Y-28358800D01*
X66865500Y-66738800D02*
X66865500Y-28358800D01*
X72834500Y-21028800D02*
X85534500Y-21028800D01*
X72834500Y-66738800D02*
X66865500Y-66738800D01*
X72834500Y-74068800D02*
X72834500Y-21028800D01*
X85534500Y-74068800D02*
X72834500Y-74068800D01*
X85534500Y-74068800D02*
X85534500Y-21028800D01*
%TD*%
D17*
%TO.C,J4*%
X89217500Y-94596000D03*
D18*
X91986100Y-94596000D03*
X94754700Y-94596000D03*
X97523300Y-94596000D03*
X100291900Y-94596000D03*
X103060500Y-94596000D03*
X105829100Y-94596000D03*
X108597700Y-94596000D03*
X111366300Y-94596000D03*
X114134900Y-94596000D03*
X116903500Y-94596000D03*
X119672100Y-94596000D03*
X122440700Y-94596000D03*
X90601800Y-97440800D03*
X93370400Y-97440800D03*
X96139000Y-97440800D03*
X98907600Y-97440800D03*
X101676200Y-97440800D03*
X104444800Y-97440800D03*
X107213400Y-97440800D03*
X109982000Y-97440800D03*
X112750600Y-97440800D03*
X115519200Y-97440800D03*
X118287800Y-97440800D03*
X121056400Y-97440800D03*
D19*
X129349100Y-96018400D03*
X82309100Y-96018400D03*
%TD*%
D17*
%TO.C,J3*%
X83781900Y-64160400D03*
D18*
X83781900Y-61391800D03*
X83781900Y-58623200D03*
X83781900Y-55854600D03*
X83781900Y-53086000D03*
X83781900Y-50317400D03*
X83781900Y-47548800D03*
X83781900Y-44780200D03*
X83781900Y-42011600D03*
X83781900Y-39243000D03*
X83781900Y-36474400D03*
X83781900Y-33705800D03*
X83781900Y-30937200D03*
X80937100Y-62776100D03*
X80937100Y-60007500D03*
X80937100Y-57238900D03*
X80937100Y-54470300D03*
X80937100Y-51701700D03*
X80937100Y-48933100D03*
X80937100Y-46164500D03*
X80937100Y-43395900D03*
X80937100Y-40627300D03*
X80937100Y-37858700D03*
X80937100Y-35090100D03*
X80937100Y-32321500D03*
D19*
X82359500Y-71068800D03*
X82359500Y-24028800D03*
%TD*%
M02*
