%TF.GenerationSoftware,KiCad,Pcbnew,9.0.4*%
%TF.CreationDate,2025-11-17T21:33:10+13:00*%
%TF.ProjectId,LoopbackBoard,4c6f6f70-6261-4636-9b42-6f6172642e6b,rev?*%
%TF.SameCoordinates,Original*%
%TF.FileFunction,Soldermask,Bot*%
%TF.FilePolarity,Negative*%
%FSLAX46Y46*%
G04 Gerber Fmt 4.6, Leading zero omitted, Abs format (unit mm)*
G04 Created by KiCad (PCBNEW 9.0.4) date 2025-11-17 21:33:10*
%MOMM*%
%LPD*%
G01*
G04 APERTURE LIST*
%ADD10C,4.048760*%
%ADD11R,1.524000X1.524000*%
%ADD12C,1.524000*%
G04 APERTURE END LIST*
D10*
%TO.C,J1*%
X129349500Y-35098740D03*
X129349500Y-60087260D03*
D11*
X127927100Y-42106600D03*
D12*
X127927100Y-44849800D03*
X127927100Y-47593000D03*
X127927100Y-50336200D03*
X127927100Y-53079400D03*
X130771900Y-43478200D03*
X130771900Y-46196000D03*
X130771900Y-48964600D03*
X130771900Y-51707800D03*
%TD*%
D11*
%TO.C,J4*%
X89217500Y-94596000D03*
D12*
X91986100Y-94596000D03*
X94754700Y-94596000D03*
X97523300Y-94596000D03*
X100291900Y-94596000D03*
X103060500Y-94596000D03*
X105829100Y-94596000D03*
X108597700Y-94596000D03*
X111366300Y-94596000D03*
X114134900Y-94596000D03*
X116903500Y-94596000D03*
X119672100Y-94596000D03*
X122440700Y-94596000D03*
X90601800Y-97440800D03*
X93370400Y-97440800D03*
X96139000Y-97440800D03*
X98907600Y-97440800D03*
X101676200Y-97440800D03*
X104444800Y-97440800D03*
X107213400Y-97440800D03*
X109982000Y-97440800D03*
X112750600Y-97440800D03*
X115519200Y-97440800D03*
X118287800Y-97440800D03*
X121056400Y-97440800D03*
D10*
X129349100Y-96018400D03*
X82309100Y-96018400D03*
%TD*%
D11*
%TO.C,J3*%
X83781900Y-64160400D03*
D12*
X83781900Y-61391800D03*
X83781900Y-58623200D03*
X83781900Y-55854600D03*
X83781900Y-53086000D03*
X83781900Y-50317400D03*
X83781900Y-47548800D03*
X83781900Y-44780200D03*
X83781900Y-42011600D03*
X83781900Y-39243000D03*
X83781900Y-36474400D03*
X83781900Y-33705800D03*
X83781900Y-30937200D03*
X80937100Y-62776100D03*
X80937100Y-60007500D03*
X80937100Y-57238900D03*
X80937100Y-54470300D03*
X80937100Y-51701700D03*
X80937100Y-48933100D03*
X80937100Y-46164500D03*
X80937100Y-43395900D03*
X80937100Y-40627300D03*
X80937100Y-37858700D03*
X80937100Y-35090100D03*
X80937100Y-32321500D03*
D10*
X82359500Y-71068800D03*
X82359500Y-24028800D03*
%TD*%
M02*
