M48
; DRILL file {KiCad 9.0.4} date 2025-11-17T21:33:15+1300
; FORMAT={-:-/ absolute / metric / decimal}
; #@! TF.CreationDate,2025-11-17T21:33:15+13:00
; #@! TF.GenerationSoftware,Kicad,Pcbnew,9.0.4
; #@! TF.FileFunction,Plated,1,2,PTH
FMAT,2
METRIC
; #@! TA.AperFunction,Plated,PTH,ComponentDrill
T1C1.041
; #@! TA.AperFunction,Plated,PTH,ComponentDrill
T2C3.051
%
G90
G05
T1
X80.937Y-32.322
X80.937Y-35.09
X80.937Y-37.859
X80.937Y-40.627
X80.937Y-43.396
X80.937Y-46.164
X80.937Y-48.933
X80.937Y-51.702
X80.937Y-54.47
X80.937Y-57.239
X80.937Y-60.008
X80.937Y-62.776
X83.782Y-30.937
X83.782Y-33.706
X83.782Y-36.474
X83.782Y-39.243
X83.782Y-42.012
X83.782Y-44.78
X83.782Y-47.549
X83.782Y-50.317
X83.782Y-53.086
X83.782Y-55.855
X83.782Y-58.623
X83.782Y-61.392
X83.782Y-64.16
X89.218Y-94.596
X90.602Y-97.441
X91.986Y-94.596
X93.37Y-97.441
X94.755Y-94.596
X96.139Y-97.441
X97.523Y-94.596
X98.908Y-97.441
X100.292Y-94.596
X101.676Y-97.441
X103.06Y-94.596
X104.445Y-97.441
X105.829Y-94.596
X107.213Y-97.441
X108.598Y-94.596
X109.982Y-97.441
X111.366Y-94.596
X112.751Y-97.441
X114.135Y-94.596
X115.519Y-97.441
X116.903Y-94.596
X118.288Y-97.441
X119.672Y-94.596
X121.056Y-97.441
X122.441Y-94.596
X127.927Y-42.107
X127.927Y-44.85
X127.927Y-47.593
X127.927Y-50.336
X127.927Y-53.079
X130.772Y-43.478
X130.772Y-46.196
X130.772Y-48.965
X130.772Y-51.708
T2
X82.309Y-96.018
X82.359Y-24.029
X82.359Y-71.069
X129.349Y-96.018
X129.35Y-35.099
X129.35Y-60.087
M30
